<?xml version="1.0" standalone="no"?><!DOCTYPE svg PUBLIC "-//W3C//DTD SVG 1.1//EN" "http://www.w3.org/Graphics/SVG/1.1/DTD/svg11.dtd" [<!ENTITY nbsp " ">]><svg data-noselect="" viewBox="18 17.667571791457476 806.32153539382 604.741151545365" width="806.32153539382" ref="svg_canvas" height="604.741151545365" preserveAspectRatio="none" version="1.1" xmlns="http://www.w3.org/2000/svg">
    <def></def>
    <g id="shape_OYqKI1CcvR" ref="shape_OYqKI1CcvR" key="shape_OYqKI1CcvR" transform="translate(98,221.99133300781) rotate(0,108.60119641077,82.820180536822) scale(1,1)" style="cursor:move;display:inline;opacity:1;" filter="">
            <g style="display:inline"><rect fill="rgba(0,0,0,0)" width="237.20239282154" height="185.64036107364" x="-10" y="-10"></rect><svg version="1.1" id="图层_1" xmlns="http://www.w3.org/2000/svg" xmlns:xlink="http://www.w3.org/1999/xlink" x="0px" y="0px" width="217.20239282154" height="165.64036107364" viewBox="2.5 23.899999618530273 196.29998779296875 149.70001220703125" style="enable-background:new 0 0 200 200;" xml:space="preserve" class="style-removed" preserveAspectRatio="none" data-parent="shape_OYqKI1CcvR">

<path d="M2.5,173.5l15.7-55.8c1.9-6.7,8-11.3,14.9-11.3h77.7L95,162.3c-1.9,6.7-8,11.3-14.9,11.3H2.5z" fill="#0348FE" stroke-width="0"></path>
<path d="M50.3,50.5l6.2-22.1c0.7-2.6,3.2-4.5,5.9-4.5h30.7l-6.2,22.1c-0.7,2.6-3.2,4.5-5.9,4.5H50.3z" fill="#027DFF" stroke-width="0"></path>
<path d="M46.5,132.3l15.7-55.8c1.9-6.7,8-11.3,14.9-11.3h77.7L139.1,121c-1.9,6.7-8,11.3-14.9,11.3H46.5z" fill="#027DFF" stroke-width="0"></path>
<path d="M77.1,65.3c-6.9,0-13,4.6-14.9,11.3L90.5,91c0,0,7.3-25.8,7.3-25.8H77.1z" fill="#0507D9" stroke-width="0"></path>
<path d="M33.1,106.5c-6.9,0-13,4.6-14.9,11.3l28.3,14.5c0,0,7.3-25.8,7.3-25.8H33.1z" fill="#0507D9" stroke-width="0"></path>
<path d="M90.5,91l15.7-55.8c1.9-6.7,8-11.3,14.9-11.3h77.7l-15.7,55.8c-1.9,6.7-8,11.3-14.9,11.3H90.5z" fill="#0348FE" stroke-width="0"></path>
</svg></g>
        </g><g id="shape_PUimOcwDy2" ref="shape_PUimOcwDy2" key="shape_PUimOcwDy2" transform="translate(200,-51.67503787953001) rotate(0,331.50923230309,402.124745762712) scale(1,1)" style="cursor:move;display:inline;opacity:1;" filter="">
            <g style="display:inline"><svg xmlns="http://www.w3.org/2000/svg" version="1.1" xmlns:xlink="http://www.w3.org/1999/xlink" width="934.68" height="805.52" viewBox="0 0 934.68 805.52" preserveAspectRatio="none" data-parent="shape_PUimOcwDy2"><rect fill="rgba(0,0,0,0)" width="487" height="134" x="111.92" y="335.76"></rect><g data-width="486.40432000000004" transform="translate(111.92, 0)"><path d="M0.45 0L25.85-37.72L1.34-74.65L20.82-74.65L35.48-50.03L51.37-74.65L70.62-74.65L45.33-37.72L70.62 0L51.93 0L35.48-25.63L19.36 0L0.45 0Z" transform="translate(0 442.76) " fill="rgb(8, 12, 36)" stroke="rgb(8, 12, 36)" stroke-width="0.187" data-glyph-w="71.29304" data-glyph-h="111.92" data-glyph-ascender="96.13928" data-glyph-descender="-15.78072"></path><path d="M7.61 0L7.61-74.65L39.28-74.65Q51.15-74.65 57.64-72.30L57.64-72.30Q69.61-67.94 73.64-56.30L73.64-56.30Q76.67-47.34 76.67-37.16L76.67-37.16Q76.67-27.08 73.76-18.13L73.76-18.13Q70.85-8.95 64.13-4.59L64.13-4.59Q59.88-1.90 54.78-0.95Q49.69 0 39.28 0L39.28 0L7.61 0ZM39.28-61.33L23.50-61.33L23.50-13.32L39.28-13.32Q49.69-13.32 53.72-17.91L53.72-17.91Q56.18-20.82 57.69-26.08Q59.21-31.34 59.21-37.27L59.21-37.27Q59.21-43.87 57.41-49.36Q55.62-54.84 52.71-57.53L52.71-57.53Q48.46-61.33 39.28-61.33L39.28-61.33Z" transform="translate(71.29304 442.76) " fill="rgb(8, 12, 36)" stroke="rgb(8, 12, 36)" stroke-width="0.187" data-glyph-w="80.13472" data-glyph-h="111.92" data-glyph-ascender="96.13928" data-glyph-descender="-15.78072"></path><path d="M36.82-74.65L63.57-74.65L63.57-61.33L42.87-61.33Q34.81-61.33 31.11-60.21Q27.42-59.09 24.96-55.85L24.96-55.85Q23.28-53.61 22.66-51.37Q22.05-49.13 21.60-43.76L21.60-43.76L63.57-43.76L63.57-30.44L21.60-30.44Q22.50-20.82 27.31-17.07Q32.12-13.32 43.65-13.32L43.65-13.32L63.57-13.32L63.57 0L42.87 0Q34.47 0 28.09-1.01L28.09-1.01Q18.02-2.69 12.09-9.85L12.09-9.85Q3.58-20.15 3.58-37.72L3.58-37.72Q3.58-57.19 15.56-68.05L15.56-68.05Q19.70-71.74 24.34-73.20Q28.99-74.65 36.82-74.65L36.82-74.65Z" transform="translate(151.42776 442.76) " fill="rgb(8, 12, 36)" stroke="rgb(8, 12, 36)" stroke-width="0.187" data-glyph-w="68.49504" data-glyph-h="111.92" data-glyph-ascender="96.13928" data-glyph-descender="-15.78072"></path><path d="M44.77 0L7.27 0L7.27-13.32L41.41-13.32Q49.58-13.32 52.27-14.89L52.27-14.89Q56.18-17.24 56.18-21.94L56.18-21.94Q56.18-27.42 51.60-29.88L51.60-29.88Q49.02-31.34 43.31-31.34L43.31-31.34L29.43-31.34Q16.79-31.34 11.19-35.93L11.19-35.93Q7.72-38.84 5.76-43.20Q3.81-47.57 3.81-52.60L3.81-52.60Q3.81-60.44 8.39-66.93L8.39-66.93Q12.87-73.20 22.72-74.31L22.72-74.31Q26.08-74.65 32.68-74.65L32.68-74.65L69.73-74.65L69.73-61.33L36.26-61.33Q28.76-61.22 26.30-60.66L26.30-60.66Q21.26-59.43 21.26-53.05L21.26-53.05Q21.26-47.68 25.52-45.89L25.52-45.89Q28.32-44.54 34.92-44.54L34.92-44.54L46.89-44.54Q56.07-44.54 60.55-42.98L60.55-42.98Q68.50-40.29 71.52-33.58L71.52-33.58Q73.87-28.20 73.87-22.05L73.87-22.05Q73.87-15.22 70.73-9.85L70.73-9.85Q66.37-2.24 57.64-0.67L57.64-0.67Q53.39 0 44.77 0L44.77 0Z" transform="translate(219.9228 442.76) " fill="rgb(8, 12, 36)" stroke="rgb(8, 12, 36)" stroke-width="0.187" data-glyph-w="77.7844" data-glyph-h="111.92" data-glyph-ascender="96.13928" data-glyph-descender="-15.78072"></path><path d="M23.50 0L7.61 0L7.61-74.65L23.50-74.65L23.50 0Z" transform="translate(297.7072 442.76) " fill="rgb(8, 12, 36)" stroke="rgb(8, 12, 36)" stroke-width="0.187" data-glyph-w="31.00184" data-glyph-h="111.92" data-glyph-ascender="96.13928" data-glyph-descender="-15.78072"></path><path d="M35.03-31.00L35.03-44.32L71.63-44.32L71.63 0L38.28 0Q29.66 0 24.57-1.29Q19.47-2.57 15.33-5.82L15.33-5.82Q3.58-14.89 3.58-37.05L3.58-37.05Q3.58-51.48 9.18-61.11L9.18-61.11Q13.32-68.16 20.48-71.40Q27.64-74.65 39.06-74.65L39.06-74.65L71.63-74.65L71.63-61.33L40.85-61.33Q30.89-61.33 26.41-56.97L26.41-56.97Q21.04-51.82 21.04-38.50L21.04-38.50Q21.04-31.67 22.44-26.19Q23.84-20.71 26.30-18.02L26.30-18.02Q28.43-15.56 32.18-14.44Q35.93-13.32 41.41-13.32L41.41-13.32L55.85-13.32L55.85-31.00L35.03-31.00Z" transform="translate(328.70904 442.76) " fill="rgb(8, 12, 36)" stroke="rgb(8, 12, 36)" stroke-width="0.187" data-glyph-w="77.33672" data-glyph-h="111.92" data-glyph-ascender="96.13928" data-glyph-descender="-15.78072"></path><path d="M53.27 0L22.83-54.73L22.83 0L7.61 0L7.61-74.65L27.98-74.65L57.64-19.03L57.64-74.65L72.75-74.65L72.75 0L53.27 0Z" transform="translate(406.04576000000003 442.76) " fill="rgb(8, 12, 36)" stroke="rgb(8, 12, 36)" stroke-width="0.187" data-glyph-w="80.35856" data-glyph-h="111.92" data-glyph-ascender="96.13928" data-glyph-descender="-15.78072"></path></g></svg></g>
        </g>
  </svg>