<svg xmlns="http://www.w3.org/2000/svg" viewBox="0 0.002 171.631 173.221">
    <g>
        <g>
            <path d="M86.67 86.62q-21 41.46-42.05 82.92c-.81 1.61-1.25 3.6-3.77 3.59H.09l43.35-86.28.64-.34 42.63-.05z" fill="#f86b96"/><path d="M86.67 86.62v-.16q14.44-28.95 28.92-57.89c4.12-8.22 8.45-16.34 12.46-24.62 1.33-2.75 3-3.76 6.05-3.71 11.47.19 22.95.12 34.43 0 2.72 0 4 .39 2.4 3.44q-21.13 41.71-42.16 83.43l.12-.06z" fill="#feb500"/><path d="M44.08 86.51a1 1 0 0 1-.64.34C29.12 58.32 14.8 29.8 0 .3c11.23 0 21.7.64 32-.2 8.25-.67 12.52 2.06 15.7 9.61C52.2 20.43 57.94 30.63 63.3 41a7 7 0 0 1 .09 7.28c-6.6 12.65-12.91 25.47-19.31 38.23z" fill="#ab65ee"/><path d="M128.77 87.11c1.43.54 1.61 2 2.17 3.11q19.49 38.73 38.87 77.49c2.7 5.39 2.67 5.42-3.52 5.43-10.53 0-21.06-.14-31.59.08-3.45.07-5.39-.94-6.95-4.15-6-12.31-12.25-24.5-18.53-36.67-1.12-2.17-1.51-3.94-.3-6.26 6.74-13 13.33-26 20-39.09z" fill="#50ccf8"/>
        </g>
    </g>
</svg>