<svg xmlns="http://www.w3.org/2000/svg" viewBox="-0.009 -0.011 205.39 205.685"><title>&#x8D44;&#x6E90; 65</title><g><g><path d="M.27 49.83C1.08 28.77 10.62 13 30.07 4.57s37.8-5.11 53.53 9c10.42 9.36 19.9 19.77 29.91 29.6 2.14 2.11 2.31 3.37.1 5.74-10.36 11.13-10.27 11.21-20.83.65-7.14-7.14-14.12-14.43-21.49-21.33-9.94-9.3-23-11.31-34.64-5.8S18.56 39.66 19.58 53.1c.71 9.3 5.8 16.35 12.54 22.14 4 3.42 4 5.41.08 9.05-9.76 9.2-9.59 9.46-18.59-.43C4.87 74.25.17 63 .27 49.83zM205.36 156.25c-1 21-10.57 36.73-30.13 45s-37.79 4.84-53.45-9.41c-10.21-9.3-19.58-19.53-29.5-29.16-2.48-2.41-2.3-3.73 0-6.16 10.29-10.71 10.19-10.78 20.83-.15 6.87 6.85 13.64 13.8 20.65 20.5 13 12.44 31.64 12.5 43.66.31s11.69-30.7-.84-43.65c-7.42-7.68-7.43-7.68.1-15.26 1.26-1.26 2.66-2.39 3.8-3.74 1.51-1.79 2.6-1.61 4.31 0 12.33 11.18 21.08 24.09 20.57 41.72zM205.35 49.84c.38 17.62-8.59 30.4-20.82 41.61-1.56 1.44-2.63 1.36-3.87-.16-.25-.3-.64-.48-.91-.76-3.29-3.41-8.44-6.4-9.31-10.34s5.24-6.62 8.09-10c10.78-12.92 10.12-31.13-1.79-42.35s-30.25-11.09-42.41.39c-8.7 8.2-8.4 7.87-17.39-.28-4.62-4.19-3.39-6.35.31-10C135.05.33 156-4.66 176.16 4.78c19 8.89 28.39 24.3 29.19 45.06zM44.55 205.26c-15-.65-30.34-9.53-39.14-27.7-9-18.56-6.61-36.46 5.83-53a9.48 9.48 0 0 1 .81-.87c14.16-14.36 8-13.25 21.73-.64 2.32 2.13 2.28 3.58.06 5.66a72 72 0 0 0-7.74 8.17 30.36 30.36 0 0 0 3.13 41.34 30.92 30.92 0 0 0 41.61-.22c3-2.75 5.55-8.3 9-7.71S86 176 89.4 178.68c3.85 3 3 5.07-.18 8.18-13.52 13.35-23.98 18.39-44.67 18.4z" fill="#ab65ee"/><path d="M145.86 102.86c-1.09-1.15-2-2.14-2.93-3.09-9.09-9.1-18.14-18.26-27.34-27.25-2.32-2.26-3.58-3.84-.27-6.33 3.89-2.93 6.55-9.5 10.8-9.2 3.64.26 6.93 5.9 10.29 9.24 11.23 11.17 22.35 22.44 33.66 33.53 2.28 2.24 2.68 3.58.17 6q-21 20.6-41.6 41.54c-2.3 2.33-3.62 2.08-5.6-.12-3.28-3.65-9-6.85-9.47-10.72-.33-3 5.72-6.87 9.05-10.23 6.68-6.76 13.43-13.45 20.15-20.17.96-.92 1.88-1.93 3.09-3.2zM79.76 56c1.4 1.32 2.73 2.48 4 3.74 3 3.09 8.39 6.19 8.44 9.34s-5.19 6.42-8.24 9.5c-6.82 6.92-13.5 14-20.68 20.51-3.53 3.21-2.83 4.87.2 7.77 9 8.64 17.64 17.67 26.57 26.39 2.31 2.26 3.6 3.84.32 6.33-3.89 3-6.61 9.5-10.82 9.25-3.61-.22-6.94-5.89-10.3-9.24C58 128.36 46.83 117.09 35.52 106c-2.22-2.18-2.85-3.49-.27-6 14-13.74 27.81-27.68 41.7-41.54.83-.86 1.75-1.58 2.81-2.46z" fill="#feb500"/></g></g></svg>